<svg width="23" height="27" viewBox="0 0 23 27" fill="none" xmlns="http://www.w3.org/2000/svg">
<path d="M6.9855 2.13484C6.9855 0.956407 7.77202 0 8.74114 0H14.2589C15.228 0 16.0145 0.956407 16.0145 2.13484V4.87963H20.7798C21.7489 4.87963 22.5354 5.83604 22.5354 7.01447V24.7031C22.5355 25.2693 22.3505 25.8123 22.0212 26.2127C21.692 26.613 21.2454 26.838 20.7798 26.838H2.22019C1.75456 26.838 1.30801 26.613 0.978761 26.2127C0.649515 25.8123 0.464546 25.2693 0.464546 24.7031V7.01447C0.464546 5.83604 1.25107 4.87963 2.22019 4.87963H6.9855V2.13484ZM1.96938 14.6267V24.7031C1.96938 24.8715 2.08174 25.0081 2.22019 25.0081H20.7798C20.8463 25.0081 20.9101 24.976 20.9572 24.9188C21.0042 24.8616 21.0306 24.784 21.0306 24.7031V14.6267C20.2608 15.4234 19.2826 15.8603 18.2718 15.8588H4.72824C3.71736 15.8603 2.73918 15.4234 1.96938 14.6267ZM21.0306 10.6742V7.01447C21.0306 6.93358 21.0042 6.85601 20.9572 6.79882C20.9101 6.74162 20.8463 6.70949 20.7798 6.70949H2.22019C2.15367 6.70949 2.08988 6.74162 2.04284 6.79882C1.9958 6.85601 1.96938 6.93358 1.96938 7.01447V10.6742C1.96938 11.5639 2.26005 12.4172 2.77743 13.0464C3.29482 13.6755 3.99655 14.0289 4.72824 14.0289H18.2718C19.0034 14.0289 19.7052 13.6755 20.2226 13.0464C20.74 12.4172 21.0306 11.5639 21.0306 10.6742ZM14.5097 2.13484C14.5097 2.05395 14.4832 1.97638 14.4362 1.91919C14.3892 1.86199 14.3254 1.82986 14.2589 1.82986H8.74114C8.67462 1.82986 8.61082 1.86199 8.56379 1.91919C8.51675 1.97638 8.49033 2.05395 8.49033 2.13484V4.87963H14.5097V2.13484Z" fill="white"/>
</svg>
