<svg width="353" height="125" viewBox="0 0 353 125" fill="none" xmlns="http://www.w3.org/2000/svg">
<path d="M140.938 34.1523H192.158C208.765 34.1523 222.389 50.6115 222.389 71.1289C222.389 91.6463 208.765 108.105 192.158 108.105H140.938C124.331 108.105 110.707 91.6463 110.706 71.1289C110.706 50.6115 124.331 34.1524 140.938 34.1523Z" fill="#F9F7FC" stroke="#85D996"/>
<path fill-rule="evenodd" clip-rule="evenodd" d="M278.058 31.6022L276.286 37.5159C276.224 37.7247 276.125 37.9143 275.998 38.0716C275.87 38.229 275.716 38.3504 275.547 38.4276L270.76 40.615C269.672 41.1136 269.672 43.015 270.76 43.5137L275.547 45.7011C275.89 45.8586 276.16 46.1905 276.286 46.6127L278.057 52.5279C278.462 53.874 280.001 53.874 280.404 52.5279L282.176 46.6127C282.302 46.1921 282.572 45.8586 282.915 45.7026L287.702 43.5137C288.791 43.015 288.791 41.1136 287.702 40.6165L282.915 38.4276C282.746 38.3506 282.592 38.2292 282.464 38.0718C282.337 37.9145 282.238 37.7248 282.176 37.5159L280.405 31.6007C280 30.2561 278.461 30.2577 278.058 31.6022Z" stroke="#85D996" stroke-width="2" stroke-linecap="round" stroke-linejoin="round"/>
<path d="M258.18 0.5C258.749 0.500004 259.319 0.743867 259.787 1.21777L259.981 1.43457C260.482 2.05373 260.776 2.9125 260.776 3.82422C260.776 4.62204 260.551 5.37913 260.159 5.9707L259.981 6.21387C259.482 6.83019 258.831 7.14843 258.18 7.14844C257.611 7.14844 257.042 6.90451 256.574 6.43066L256.38 6.21387C255.878 5.59472 255.585 4.73597 255.585 3.82422C255.585 3.02641 255.81 2.26931 256.202 1.67773L256.38 1.43457C256.816 0.895146 257.37 0.583897 257.937 0.514648L258.18 0.5Z" fill="#C69AFD" stroke="#85D996"/>
<path fill-rule="evenodd" clip-rule="evenodd" d="M32.652 109.278L31.4707 113.222C31.4286 113.361 31.3629 113.487 31.2778 113.592C31.1928 113.697 31.0905 113.778 30.9779 113.829L27.7856 115.29C27.0612 115.62 27.0612 116.889 27.7856 117.219L30.9779 118.678C31.2057 118.784 31.3865 119.006 31.4707 119.289L32.652 123.23C32.7112 123.428 32.8178 123.598 32.9575 123.718C33.0971 123.838 33.2632 123.902 33.4334 123.902C33.6035 123.902 33.7696 123.838 33.9093 123.718C34.049 123.598 34.1556 123.428 34.2147 123.23L35.396 119.289C35.4374 119.149 35.5029 119.022 35.588 118.916C35.6731 118.811 35.7758 118.73 35.8889 118.678L39.0812 117.219C39.8055 116.889 39.8055 115.62 39.0812 115.29L35.8889 113.829C35.7762 113.778 35.6738 113.697 35.5888 113.592C35.5037 113.487 35.438 113.361 35.396 113.222L34.2147 109.277C34.1556 109.08 34.049 108.91 33.9093 108.79C33.7696 108.67 33.6035 108.605 33.4334 108.605C33.2632 108.605 33.0971 108.67 32.9575 108.79C32.8178 108.91 32.7112 109.081 32.652 109.278Z" stroke="#85D996" stroke-width="2" stroke-linecap="round" stroke-linejoin="round"/>
<path fill-rule="evenodd" clip-rule="evenodd" d="M234.034 71.8935C234.034 75.139 232.99 78.2516 231.133 80.5465C229.275 82.8414 226.755 84.1307 224.128 84.1307C221.501 84.1307 218.981 82.8414 217.123 80.5465C215.265 78.2516 214.222 75.139 214.222 71.8935C214.222 68.648 215.265 65.5354 217.123 63.2405C218.981 60.9455 221.501 59.6563 224.128 59.6563C226.755 59.6563 229.275 60.9455 231.133 63.2405C232.99 65.5354 234.034 68.648 234.034 71.8935Z" stroke="#85D996" stroke-width="2" stroke-linecap="round" stroke-linejoin="round"/>
<path d="M55.7224 71.1289H81.7261" stroke="#85D996" stroke-width="2" stroke-linecap="round"/>
<path d="M77.392 50.9771C77.6738 50.9772 77.9667 51.0979 78.2142 51.3491L78.3168 51.4644C78.5858 51.7969 78.7495 52.2666 78.7494 52.7729L78.7426 52.9585C78.7327 53.0815 78.7128 53.2026 78.684 53.3198L78.6342 53.4927C78.5773 53.6619 78.5015 53.8162 78.4115 53.9517L78.3168 54.0815C78.2175 54.204 78.1071 54.3032 77.9916 54.3794L77.8744 54.4478C77.7167 54.5284 77.5528 54.5679 77.391 54.5679L77.2699 54.5601C77.1885 54.5502 77.1071 54.5307 77.0267 54.5005L76.9076 54.4478C76.7889 54.3869 76.6745 54.3021 76.5687 54.1948L76.4662 54.0806C76.3669 53.9579 76.2801 53.8149 76.2113 53.6558L76.1488 53.4907C76.0732 53.265 76.0335 53.0205 76.0336 52.772L76.0414 52.5835C76.0715 52.212 76.1891 51.868 76.3705 51.5942L76.4672 51.4634C76.7007 51.1753 76.9872 51.0193 77.2709 50.9849L77.392 50.9771Z" fill="#C69AFD" stroke="#85D996"/>
<path d="M3.0957 92.2793C3.66469 92.2793 4.23435 92.5232 4.70215 92.9971L4.89648 93.2139C5.39763 93.833 5.69141 94.6918 5.69141 95.6035L5.67773 95.9424C5.61461 96.726 5.33505 97.4514 4.89648 97.9932C4.39757 98.6095 3.74591 98.9277 3.0957 98.9277C2.52676 98.9277 1.95704 98.6838 1.48926 98.21L1.29492 97.9932C0.793732 97.374 0.500018 96.5153 0.5 95.6035C0.5 94.8057 0.725132 94.0486 1.11719 93.457L1.29492 93.2139C1.79384 92.5975 2.44549 92.2793 3.0957 92.2793Z" fill="#C69AFD" stroke="#85D996"/>
<path d="M191.313 113.194V102.487" stroke="#85D996" stroke-width="2" stroke-linecap="round" stroke-linejoin="round"/>
<path d="M195.647 107.839L186.979 107.842" stroke="#85D996" stroke-width="2" stroke-linecap="round" stroke-linejoin="round"/>
<path d="M132.495 52.7729H85.441" stroke="#85D996" stroke-width="2" stroke-linecap="round" stroke-linejoin="round"/>
<path d="M351.67 109.37H339.287" stroke="#85D996" stroke-width="2" stroke-linecap="round" stroke-linejoin="round"/>
<path d="M321.952 109.37H278.612" stroke="#85D996" stroke-width="2" stroke-linecap="round" stroke-linejoin="round"/>
</svg>
